<?xml version="1.0" encoding="utf-8"?>
<!-- Generator: Adobe Illustrator 21.0.0, SVG Export Plug-In . SVG Version: 6.00 Build 0)  -->
<svg version="1.1" id="Layer_1" xmlns="http://www.w3.org/2000/svg" xmlns:xlink="http://www.w3.org/1999/xlink" x="0px" y="0px"
	 viewBox="0 0 84.9 84.7" style="enable-background:new 0 0 84.9 84.7;" xml:space="preserve">
<style type="text/css">
	.st0{fill:#6B78AF;}
	.st1{fill:#FFFFFF;}
	.st2{fill:#F7C331;}
	.st3{fill:#DCC7AA;}
	.st4{fill:none;stroke:#FFFFFF;stroke-width:0.5;stroke-miterlimit:10;}
	.st5{fill:none;stroke:#6B78AF;stroke-width:0.5;stroke-miterlimit:10;}
</style>
<g>
	<path class="st1" d="M42.5,1.9c22.3,0,40.4,18.1,40.4,40.4S64.8,82.7,42.5,82.7c-22.3,0-40.4-18.1-40.4-40.4S20.2,1.9,42.5,1.9
		 M42.5,0.2C19.2,0.2,0.3,19,0.3,42.3s18.9,42.2,42.2,42.2s42.2-18.9,42.2-42.2S65.8,0.2,42.5,0.2L42.5,0.2z"/>
</g>
<g>
	<path class="st1" d="M19.4,40.3c0,1.9-0.7,3.4-2.2,4.5s-3.5,1.9-6,2.1c0,0.2,0,0.3,0,0.5c0,0.2,0,0.3,0,0.5c0,1.1,0.2,1.9,0.6,2.5
		c0.4,0.5,1.2,0.8,2.2,0.8c1.1,0,2.1-0.3,3.1-0.8c1-0.5,2-1.5,2.8-2.8H21c-0.4,0.8-1,1.6-1.6,2.3c-0.6,0.7-1.3,1.4-2,1.9
		c-0.7,0.6-1.5,1-2.4,1.3c-0.8,0.3-1.7,0.5-2.6,0.5c-0.6,0-1.2-0.1-1.8-0.3c-0.6-0.2-1.1-0.5-1.6-0.9c-0.5-0.4-0.8-1-1.1-1.6
		c-0.3-0.7-0.4-1.5-0.4-2.4c0-0.6,0.1-1.3,0.2-2.1c0.1-0.8,0.3-1.6,0.6-2.5C8.6,43,9,42.1,9.5,41.3c0.4-0.8,1-1.6,1.6-2.2
		c0.6-0.6,1.3-1.2,2.1-1.6c0.8-0.4,1.7-0.6,2.7-0.6c0.5,0,0.9,0,1.3,0.1s0.8,0.3,1.1,0.5c0.3,0.3,0.6,0.6,0.8,1
		C19.3,39.1,19.4,39.6,19.4,40.3z M16.2,38.5c-0.6,0-1.2,0.2-1.7,0.6s-1,1-1.4,1.7s-0.8,1.4-1,2.3c-0.3,0.8-0.5,1.7-0.7,2.5
		c1.8-0.3,3.3-0.9,4.4-1.9c1.1-1,1.6-2.3,1.6-3.7c0-0.4-0.1-0.7-0.2-1C17,38.7,16.7,38.5,16.2,38.5z"/>
	<path class="st1" d="M38.6,49.6c0,0.5,0.1,0.8,0.2,1.1c0.1,0.3,0.4,0.5,0.8,0.5c1,0,2.1-1.2,3.1-3.6h1.2c-0.5,1.4-1.1,2.5-1.6,3.3
		c-0.5,0.8-1,1.4-1.5,1.8c-0.5,0.4-1,0.7-1.4,0.8c-0.4,0.1-0.8,0.2-1.1,0.2c-1.1,0-1.9-0.4-2.4-1.1c-0.5-0.7-0.7-1.6-0.7-2.6
		c0-0.7,0.1-1.5,0.2-2.3s0.3-1.6,0.5-2.3c0.2-0.8,0.4-1.5,0.5-2.2c0.2-0.7,0.2-1.4,0.2-2c0-0.5-0.1-1-0.3-1.3
		c-0.2-0.3-0.6-0.5-1.1-0.5c-0.7,0-1.3,0.3-1.8,0.9c-0.5,0.6-1,1.5-1.5,2.7l-2.3,10.6h-3.3l2.3-11c0.1-0.3,0.1-0.6,0.1-0.8
		c0-0.2,0-0.5,0-0.7c0-0.6-0.1-1-0.4-1.3c-0.2-0.2-0.6-0.4-1-0.4c-0.7,0-1.3,0.3-1.8,0.9c-0.5,0.6-1,1.5-1.5,2.6L22,53.5h-3.3
		l3.5-16.4h3.3L25,39.2c0.8-1,1.5-1.6,2.2-1.9c0.7-0.3,1.3-0.4,1.9-0.4c1.1,0,1.9,0.3,2.4,0.8c0.5,0.5,0.8,1.2,0.9,2
		c0.4-0.6,0.8-1.1,1.2-1.5c0.4-0.4,0.8-0.6,1.2-0.8c0.4-0.2,0.7-0.3,1.1-0.4c0.3-0.1,0.7-0.1,1-0.1c0.7,0,1.2,0.1,1.6,0.3
		c0.4,0.2,0.8,0.5,1.1,0.8c0.3,0.3,0.4,0.7,0.5,1.2c0.1,0.4,0.1,0.9,0.1,1.4c0,0.7-0.1,1.5-0.2,2.3c-0.2,0.8-0.3,1.6-0.5,2.3
		c-0.2,0.8-0.4,1.5-0.5,2.3C38.7,48.3,38.6,49,38.6,49.6z"/>
	<path class="st1" d="M48.2,37.1l-2.4,11.2c-0.1,0.4-0.1,0.7-0.1,1.1c0,0.6,0.1,1.1,0.4,1.4c0.3,0.3,0.6,0.5,1.1,0.5
		c0.6,0,1.3-0.3,2-0.9c0.7-0.6,1.1-1.5,1.4-2.6l2.2-10.5H56l-3.4,15.8c0.6-0.2,1.1-0.4,1.6-0.7c0.5-0.3,0.9-0.6,1.3-1
		c0.4-0.4,0.8-0.9,1.1-1.5c0.3-0.6,0.6-1.3,0.9-2.1h1.2c-0.4,1.2-0.8,2.1-1.2,2.8c-0.4,0.7-0.9,1.3-1.4,1.8
		c-0.5,0.5-1.1,0.8-1.7,1.1s-1.3,0.5-2.1,0.7L52,56.1c-0.2,1.2-0.5,2.1-0.8,2.9c-0.3,0.7-0.6,1.3-1,1.7s-0.8,0.7-1.2,0.8
		c-0.4,0.1-0.9,0.2-1.5,0.2c-1,0-1.9-0.2-2.6-0.7c-0.7-0.4-1.1-1.2-1.1-2.3c0-0.5,0.2-1.1,0.5-1.5c0.3-0.5,0.7-0.9,1.2-1.3
		s1.1-0.8,1.7-1.1s1.2-0.6,1.9-0.9l0.4-2.1c-0.5,0.6-1.1,1.1-1.7,1.4c-0.6,0.3-1.2,0.4-1.8,0.4c-0.5,0-1-0.1-1.4-0.3
		c-0.4-0.2-0.8-0.5-1.1-0.9c-0.3-0.4-0.6-0.8-0.8-1.4c-0.2-0.5-0.3-1.2-0.3-1.8c0-0.5,0.1-1.1,0.2-1.7l2.2-10.5H48.2z M46.4,60
		c0.6,0,1.1-0.4,1.4-1.1c0.3-0.7,0.6-1.6,0.9-2.8l0.2-1.1c-1.2,0.5-2.2,1.1-2.8,1.7c-0.6,0.6-0.9,1.2-0.9,1.8c0,0.4,0.1,0.7,0.3,0.9
		C45.7,59.9,46,60,46.4,60z"/>
	<path class="st1" d="M64.6,30.5l-3.8,17.7c0,0.2-0.1,0.5-0.1,0.7c0,0.2,0,0.5,0,0.7c0,0.5,0.1,0.8,0.2,1.1c0.2,0.3,0.5,0.4,0.9,0.4
		c0.2,0,0.3,0,0.5,0c0.2,0,0.4-0.1,0.6-0.2c-0.3,1.1-0.6,1.8-1.1,2.1s-1,0.6-1.5,0.6c-0.3,0-0.7-0.1-1-0.2s-0.7-0.3-0.9-0.6
		c-0.3-0.3-0.5-0.7-0.7-1.2c-0.2-0.5-0.3-1.1-0.3-1.9c0-0.6,0.1-1.4,0.3-2.2L61.2,31L64.6,30.5z"/>
	<path class="st1" d="M68.1,37.7c-0.3,0-0.6,0.1-0.8,0.2c-0.2,0.1-0.4,0.3-0.5,0.4c-0.1,0.2-0.2,0.4-0.3,0.6c0,0.2-0.1,0.4-0.1,0.6
		c0,0.4,0.1,0.7,0.2,0.9c0.1,0.2,0.3,0.4,0.5,0.6c0.2,0.1,0.4,0.2,0.6,0.3c0.2,0,0.4,0.1,0.7,0.1c0.5,0,1-0.1,1.4-0.3
		c0.4-0.2,0.7-0.5,1-0.8s0.5-0.7,0.6-1.1c0.1-0.4,0.2-0.8,0.2-1.2c0-0.4-0.1-0.8-0.2-1.1s-0.3-0.7-0.6-1c-0.3-0.3-0.6-0.5-1-0.7
		c-0.4-0.2-0.9-0.3-1.4-0.4c0.6-0.2,1.2-0.4,1.7-0.6s0.9-0.6,1.2-0.9c0.3-0.3,0.6-0.7,0.7-1c0.2-0.4,0.2-0.7,0.2-1
		c0-0.5-0.2-0.9-0.5-1.3s-0.7-0.5-1.3-0.5c-0.6,0-1.1,0.2-1.5,0.5c-0.3,0.3-0.5,0.7-0.5,1.1c0,0.2,0.1,0.5,0.2,0.7
		c0.1,0.2,0.3,0.5,0.6,0.6c-0.2,0.2-0.4,0.4-0.7,0.5c-0.2,0.1-0.4,0.1-0.6,0.1c-0.3,0-0.6-0.1-0.8-0.4s-0.3-0.6-0.3-1.1
		c0-0.5,0.1-0.9,0.3-1.3c0.2-0.4,0.5-0.7,0.9-0.9s0.8-0.4,1.2-0.6c0.5-0.1,0.9-0.2,1.4-0.2c0.4,0,0.9,0.1,1.3,0.2
		c0.4,0.1,0.8,0.3,1.1,0.5c0.3,0.2,0.6,0.5,0.8,0.9c0.2,0.4,0.3,0.8,0.3,1.2c0,0.7-0.2,1.4-0.7,2s-1.1,1.2-1.9,1.5
		c0.9,0.4,1.5,0.9,1.8,1.5c0.4,0.6,0.6,1.3,0.6,2c0,0.6-0.1,1.1-0.4,1.7c-0.3,0.6-0.7,1.1-1.1,1.5c-0.5,0.4-1,0.8-1.7,1.1
		c-0.7,0.3-1.4,0.4-2.1,0.4c-0.3,0-0.6,0-1.1-0.1c-0.4-0.1-0.9-0.2-1.3-0.4c-0.4-0.2-0.8-0.5-1.1-1c-0.3-0.4-0.4-1-0.4-1.7
		c0-0.8,0.2-1.5,0.6-2c0.4-0.5,0.9-0.7,1.6-0.7c0.1,0,0.2,0,0.4,0s0.3,0.1,0.4,0.1c0.1,0.1,0.2,0.2,0.3,0.3
		C68,37.3,68.1,37.5,68.1,37.7z"/>
</g>
</svg>
